{"title":"Shrek the Halls (2007) BDRip x264 720p Hun","uid":9135346,"size":522790138,"categoryP":"video","categoryS":"hd___movies","magnet":"?xt=urn:btih:d4772e8f03094938b7c41c9068ff06338bc0d823&amp;dn=Shrek+the+Halls+%282007%29+BDRip+x264+720p+Hun&amp;tr=udp%3A%2F%2Ftracker.openbittorrent.com%3A80&amp;tr=udp%3A%2F%2Fopen.demonii.com%3A1337&amp;tr=udp%3A%2F%2Ftracker.coppersurfer.tk%3A6969&amp;tr=udp%3A%2F%2Fexodus.desync.com%3A6969","seeders":1,"leechers":0,"uploader":"rinoceros","files":-1,"time":1383402545,"description":"Shrek the Halls (2007) BDRip x264 720p Hun\n\nGeneral\nUnique ID                                : 236486912091018046277768099317897480031 (0xB1E9B8F8B87E5079860CC8D07D73C75F)\nComplete name                            : F:Shrek the Halls (2007) BDRip x264 720p HunShrek the Halls (2007) 720p.mkv\nFormat                                   : Matroska\nFormat version                           : Version 4 / Version 2\nFile size                                : 499 MiB\nDuration                                 : 26mn 53s\nOverall bit rate                         : 2 592 Kbps\nEncoded date                             : UTC 2013-11-02 11:59:27\nWriting application                      : mkvmerge v6.4.1 ('Omega Point') built on Sep 16 2013 22:05:10\nWriting library                          : libebml v1.3.0 + libmatroska v1.4.1\n\nVideo\nID                                       : 1\nFormat                                   : AVC\nFormat/Info                              : Advanced Video Codec\nFormat profile                           : &lt;a class=&quot;__cf_email__&quot; href=&quot;/cdn-cgi/l/email-protection&quot; data-cfemail=&quot;450d2c222d0509716b74&quot;&gt;[email&amp;#160;protected]&lt;/a&gt;&lt;script cf-hash='f9e31' type=&quot;text/javascript&quot;&gt;\n/* &lt;![CDATA[ */!function(){try{var t=&quot;currentScript&quot;in document?document.currentScript:function(){for(var t=document.getElementsByTagName(&quot;script&quot;),e=t.length;e--;)if(t[e].getAttribute(&quot;cf-hash&quot;))return t[e]}();if(t&amp;&amp;t.previousSibling){var e,r,n,i,c=t.previousSibling,a=c.getAttribute(&quot;data-cfemail&quot;);if(a){for(e=&quot;&quot;,r=parseInt(a.substr(0,2),16),n=2;a.length-n;n+=2)i=parseInt(a.substr(n,2),16)^r,e+=String.fromCharCode(i);e=document.createTextNode(e),c.parentNode.replaceChild(e,c)}}}catch(u){}}();/* ]]&gt; */&lt;/script&gt;\nFormat settings, CABAC                   : Yes\nFormat settings, ReFrames                : 3 frames\nCodec ID                                 : V_MPEG4/ISO/AVC\nDuration                                 : 26mn 53s\nBit rate                                 : 2 207 Kbps\nWidth                                    : 1 280 pixels\nHeight                                   : 720 pixels\nDisplay aspect ratio                     : 16:9\nFrame rate mode                          : Constant\nFrame rate                               : 25.000 fps\nColor space                              : YUV\nChroma subsampling                       : 4:2:0\nBit depth                                : 8 bits\nScan type                                : Progressive\nBits/(Pixel*Frame)                       : 0.096\nStream size                              : 415 MiB (83%)\nTitle                                    : Shrek the Halls (2007) 720p\nWriting library                          : x264 core 65 r999kMod cc51047\nEncoding settings                        : cabac=1 // deblock=1:-1:-1 / analyse=0x3:0x113 / me=umh / subme=9 / psy_rd=1.0:0.0 // me_range=16 / chroma_me=1 / trellis=1 / 8x8dct=1 / cqm=0 / deadzone=21,11 / chroma_qp_offset=-2 / threads=2 / thread_queue=2 / nr=0 / decimate=1 / mbaff=0 / bframes=3 / b_pyramid=0 / b_adapt=1 / b_bias=0 / direct=3 / wpredb=1 / keyint=250 / keyint_min=25 / scenecut=40(pre) / rc=2pass / bitrate=2207 / ratetol=1.0 / qcomp=0.60 / qpmin=10 / qpmax=51 / qpstep=4 / cplxblur=20.0 / qblur=0.5 / ip_ratio=1.40 / pb_ratio=1.30 / aq=1:1.00\nDefault                                  : Yes\nForced                                   : No\n\nAudio\nID                                       : 2\nFormat                                   : AC-3\nFormat/Info                              : Audio Coding 3\nMode extension                           : CM (complete main)\nFormat settings, Endianness              : Big\nCodec ID                                 : A_AC3\nDuration                                 : 26mn 53s\nBit rate mode                            : Constant\nBit rate                                 : 384 Kbps\nChannel(s)                               : 6 channels\nChannel positions                        : Front: L C R, Side: L R, LFE\nSampling rate                            : 48.0 KHz\nBit depth                                : 16 bits\nCompression mode                         : Lossy\nDelay relative to video                  : 600ms\nStream size                              : 73.9 MiB (15%)\nTitle                                    : AC3 5.1\nLanguage                                 : Hungarian\nDefault                                  : Yes\nForced                                   : No\n &lt;a href=&quot;\nhttp://port.hu/shrekbol_az_angyal_shrek_the_halls/pls/fi/films.film_page?i_where=2&amp;i_film_id=91031&amp;i_city_id=-1&amp;i_county_id=-1&amp;i_topic_id=2&quot; rel=&quot;nofollow&quot; target=&quot;_NEW&quot;&gt;\nhttp://port.hu/shrekbol_az_angyal_shrek_the_halls/pls/fi/films.film_page?i_where=2&amp;i_film_id=91031&amp;i_city_id=-1&amp;i_county_id=-1&amp;i_topic_id=2&lt;/a&gt;","torrent":{"xt":"urn:btih:d4772e8f03094938b7c41c9068ff06338bc0d823","amp;dn":"Shrek+the+Halls+%282007%29+BDRip+x264+720p+Hun","amp;tr":["udp%3A%2F%2Ftracker.openbittorrent.com%3A80","udp%3A%2F%2Fopen.demonii.com%3A1337","udp%3A%2F%2Ftracker.coppersurfer.tk%3A6969","udp%3A%2F%2Fexodus.desync.com%3A6969"],"infoHash":"d4772e8f03094938b7c41c9068ff06338bc0d823","infoHashBuffer":{"type":"Buffer","data":[212,119,46,143,3,9,73,56,183,196,28,144,104,255,6,51,139,192,216,35]},"announce":[],"urlList":[]}}